<?xml version="1.0" encoding="utf-8"?>
<!-- Generator: Adobe Illustrator 16.0.0, SVG Export Plug-In . SVG Version: 6.00 Build 0)  -->
<svg version="1.2" baseProfile="tiny" id="Layer_1" xmlns="http://www.w3.org/2000/svg" xmlns:xlink="http://www.w3.org/1999/xlink"
	 x="0px" y="0px" width="466px" height="100px" viewBox="0 0 466 100" xml:space="preserve">
<g>
	<g>
		<path fill="#929497" d="M193.756,90.135l-36.248-62.309L123.73,90.135h-7.644L159.786,9.94h4.145l46.887,80.195H193.756z"/>
	</g>
	<g>
		<g>
			<path fill="#929497" d="M2.035,38.229c0-3.4,0-4.01-0.048-4.707c-0.054-0.736-0.228-1.08-0.997-1.237
				c-0.192-0.042-0.593-0.062-0.808-0.062c-0.1,0-0.182-0.051-0.182-0.137c0-0.124,0.115-0.171,0.369-0.171
				c1.062,0,2.451,0.061,2.585,0.061c0.219,0,1.574-0.061,2.281-0.061c0.25,0,0.368,0.047,0.368,0.171
				c0,0.086-0.085,0.137-0.191,0.137c-0.158,0-0.307,0.02-0.589,0.062c-0.617,0.108-0.81,0.485-0.853,1.237
				c-0.049,0.697-0.049,1.307-0.049,4.707v1.299h0.091c0.386-0.414,4.636-4.419,5.492-5.268c0.647-0.629,1.265-1.189,1.265-1.561
				c0-0.257-0.114-0.397-0.306-0.456c-0.118-0.049-0.208-0.091-0.208-0.188c0-0.094,0.117-0.141,0.263-0.141
				c0.487,0,1.21,0.061,1.773,0.061c0.121,0,1.672-0.061,2.261-0.061c0.248,0,0.349,0.047,0.349,0.141
				c0,0.117-0.055,0.167-0.246,0.167c-0.338,0-0.829,0.108-1.301,0.299c-0.958,0.396-1.49,0.942-2.536,1.869
				c-0.59,0.524-4.663,4.224-5.166,4.761c0.609,0.632,5.492,5.309,6.449,6.145c1.976,1.688,2.373,2.04,3.517,2.477
				c0.601,0.237,1.279,0.273,1.445,0.273c0.172,0,0.31,0.046,0.31,0.137c0,0.107-0.122,0.18-0.522,0.18h-1.194
				c-0.665,0-1.104,0-1.623-0.06c-1.252-0.093-1.846-0.579-2.832-1.319c-1.06-0.8-6.04-5.777-7.176-7.062H3.922v2.131
				c0,2.081,0,3.803,0.104,4.718c0.075,0.624,0.208,1.11,0.915,1.193c0.342,0.046,0.711,0.082,0.92,0.082
				c0.145,0,0.191,0.068,0.191,0.137c0,0.107-0.121,0.18-0.373,0.18c-1.151,0-2.506-0.072-2.703-0.072
				c-0.188,0-1.546,0.072-2.254,0.072c-0.264,0-0.385-0.06-0.385-0.18c0-0.068,0.058-0.137,0.188-0.137
				c0.212,0,0.507-0.036,0.708-0.082c0.474-0.083,0.592-0.569,0.684-1.193c0.117-0.916,0.117-2.638,0.117-4.718V38.229z"/>
			<path fill="#929497" d="M20.91,39.725c0-2.866,0-3.398-0.055-3.988c-0.051-0.627-0.148-0.927-0.851-1.018
				c-0.154-0.023-0.512-0.04-0.705-0.04c-0.055,0-0.16-0.091-0.16-0.152c0-0.111,0.105-0.157,0.336-0.157
				c0.932,0,2.274,0.046,2.393,0.046c0.15,0,4.458,0.021,4.929,0c0.402-0.023,0.771-0.081,0.943-0.117
				c0.093-0.011,0.18-0.08,0.286-0.08c0.055,0,0.091,0.08,0.091,0.173c0,0.134-0.126,0.345-0.166,0.875
				c-0.031,0.169-0.079,1.002-0.118,1.216c-0.035,0.087-0.093,0.198-0.191,0.198c-0.118,0-0.169-0.095-0.169-0.237
				c0-0.133-0.027-0.439-0.114-0.656c-0.149-0.307-0.358-0.438-1.476-0.57c-0.355-0.039-2.743-0.069-2.986-0.069
				c-0.087,0-0.114,0.069-0.114,0.201v5.033c0,0.132,0,0.199,0.114,0.199c0.258,0,2.986,0,3.445-0.048
				c0.502-0.05,0.807-0.08,1.017-0.268c0.145-0.124,0.235-0.233,0.31-0.233c0.071,0,0.102,0.043,0.102,0.152
				c0,0.109-0.102,0.408-0.165,1.025c-0.038,0.371-0.082,1.053-0.082,1.191c0,0.147-0.051,0.349-0.182,0.349
				c-0.102,0-0.144-0.062-0.144-0.172c0-0.177,0-0.377-0.107-0.61c-0.054-0.268-0.247-0.485-1.04-0.568
				c-0.565-0.066-2.778-0.089-3.139-0.089c-0.103,0-0.13,0.073-0.13,0.132v1.546c0,0.63-0.027,2.776,0,3.153
				c0.048,1.238,0.408,1.478,2.467,1.478c0.533,0,1.52,0,2.061-0.198c0.534-0.207,0.818-0.534,0.936-1.279
				c0.043-0.214,0.101-0.283,0.215-0.283c0.122,0,0.134,0.153,0.134,0.283c0,0.128-0.161,1.387-0.275,1.786
				c-0.152,0.477-0.357,0.477-1.15,0.477c-1.556,0-2.749-0.038-3.589-0.061c-0.872-0.05-1.415-0.05-1.713-0.05
				c-0.04,0-0.44,0-0.898,0.013c-0.397,0.037-0.856,0.06-1.194,0.06c-0.209,0-0.328-0.06-0.328-0.152
				c0-0.069,0.044-0.164,0.158-0.164c0.201,0,0.448-0.055,0.644-0.082c0.396-0.063,0.457-0.439,0.543-0.98
				c0.116-0.758,0.116-2.222,0.116-3.999V39.725z"/>
			<path fill="#929497" d="M36.466,45.831c0.045,1.535,0.239,1.985,0.8,2.115c0.365,0.089,0.84,0.103,1.029,0.103
				c0.091,0,0.165,0.068,0.165,0.164c0,0.093-0.134,0.152-0.385,0.152c-1.182,0-1.991-0.072-2.172-0.072
				c-0.188,0-1.06,0.072-2.003,0.072c-0.212,0-0.325-0.022-0.325-0.152c0-0.096,0.078-0.164,0.161-0.164
				c0.164,0,0.542-0.014,0.84-0.103c0.53-0.13,0.605-0.63,0.605-2.305v-10.6c0-0.742,0.103-0.929,0.267-0.929
				c0.238,0,0.593,0.369,0.813,0.567c0.319,0.308,3.335,3.262,6.524,6.31c2.038,1.958,4.233,4.159,4.865,4.76l-0.204-9.266
				c-0.027-1.198-0.145-1.608-0.77-1.715c-0.385-0.072-0.857-0.089-1.018-0.089c-0.13,0-0.166-0.112-0.166-0.17
				c0-0.116,0.166-0.139,0.398-0.139c0.951,0,1.924,0.046,2.172,0.046c0.224,0,0.902-0.046,1.761-0.046
				c0.203,0,0.363,0.022,0.363,0.139c0,0.058-0.085,0.17-0.218,0.17c-0.107,0-0.263,0-0.504,0.04
				c-0.68,0.129-0.733,0.499-0.733,1.608l-0.048,10.841c0,1.209-0.016,1.319-0.161,1.319c-0.206,0-0.408-0.144-1.567-1.12
				c-0.208-0.18-3.202-2.904-5.386-5.009c-2.376-2.326-4.708-4.598-5.337-5.246L36.466,45.831z"/>
			<path fill="#929497" d="M56.438,39.725c0-2.866,0-3.398-0.048-3.988c-0.058-0.627-0.176-0.927-0.84-1.018
				c-0.169-0.023-0.53-0.04-0.71-0.04c-0.076,0-0.165-0.091-0.165-0.152c0-0.111,0.089-0.157,0.318-0.157
				c0.938,0,2.281,0.046,2.398,0.046c0.241,0,1.551-0.046,2.773-0.046c2.071,0,5.846-0.173,8.28,2.113
				c1.037,0.963,2.027,2.499,2.027,4.697c0,2.325-1.08,4.118-2.233,5.2c-0.898,0.847-2.741,2.131-6.251,2.131
				c-0.905,0-2.011-0.062-2.894-0.107c-0.901-0.061-1.611-0.11-1.703-0.11c-0.04,0-0.415,0.013-0.84,0.013
				c-0.427,0.037-0.915,0.06-1.237,0.06c-0.223,0-0.341-0.06-0.341-0.152c0-0.069,0.047-0.164,0.163-0.164
				c0.191,0,0.458-0.036,0.642-0.082c0.405-0.083,0.437-0.439,0.539-0.98c0.123-0.758,0.123-2.222,0.123-3.999V39.725z M58.31,41.73
				c0,1.954,0,3.677,0.028,4.018c0.011,0.452,0.071,1.137,0.217,1.33c0.266,0.342,1.001,0.738,3.444,0.738
				c1.906,0,3.585-0.59,4.824-1.676c1.08-0.938,1.622-2.703,1.622-4.398c0-2.339-1.104-3.844-1.945-4.631
				c-1.947-1.826-4.221-2.07-6.684-2.07c-0.4,0-1.064,0.068-1.26,0.137c-0.172,0.068-0.245,0.15-0.245,0.368V41.73z"/>
			<path fill="#929497" d="M83.026,34.112c4.647,0,8.163,2.631,8.163,6.933c0,4.137-3.308,7.558-8.292,7.558
				c-5.656,0-8.063-3.942-8.063-7.27C74.834,38.357,77.312,34.112,83.026,34.112z M83.487,47.842c1.854,0,5.588-0.916,5.588-6.262
				c0-4.446-2.906-6.771-6.178-6.771c-3.445,0-5.935,1.997-5.935,6.015C76.963,45.147,79.748,47.842,83.487,47.842z"/>
			<path fill="#929497" d="M98.141,45.831c0.028,1.535,0.231,1.985,0.781,2.115c0.382,0.089,0.856,0.103,1.046,0.103
				c0.094,0,0.158,0.068,0.158,0.164c0,0.093-0.142,0.152-0.378,0.152c-1.168,0-1.987-0.072-2.184-0.072
				c-0.196,0-1.053,0.072-1.993,0.072c-0.207,0-0.325-0.022-0.325-0.152c0-0.096,0.058-0.164,0.161-0.164
				c0.164,0,0.526-0.014,0.84-0.103c0.522-0.13,0.593-0.63,0.593-2.305v-10.6c0-0.742,0.119-0.929,0.275-0.929
				c0.24,0,0.578,0.369,0.801,0.567c0.342,0.308,3.339,3.262,6.524,6.31c2.035,1.958,4.254,4.159,4.887,4.76l-0.21-9.266
				c-0.027-1.198-0.145-1.608-0.782-1.715c-0.368-0.072-0.843-0.089-1.004-0.089c-0.133,0-0.161-0.112-0.161-0.17
				c0-0.116,0.161-0.139,0.396-0.139c0.932,0,1.92,0.046,2.154,0.046c0.238,0,0.917-0.046,1.754-0.046
				c0.224,0,0.394,0.022,0.394,0.139c0,0.058-0.111,0.17-0.24,0.17c-0.09,0-0.268,0-0.499,0.04
				c-0.683,0.129-0.727,0.499-0.727,1.608l-0.047,10.841c0,1.209-0.027,1.319-0.165,1.319c-0.2,0-0.424-0.144-1.556-1.12
				c-0.227-0.18-3.205-2.904-5.388-5.009c-2.395-2.326-4.708-4.598-5.357-5.246L98.141,45.831z"/>
			<path fill="#929497" d="M127.963,43.644c0-1.512-0.054-1.722-0.904-1.874c-0.161-0.027-0.509-0.039-0.705-0.039
				c-0.072,0-0.163-0.091-0.163-0.15c0-0.138,0.091-0.159,0.341-0.159c0.929,0,2.318,0.047,2.432,0.047
				c0.09,0,1.391-0.047,2.02-0.047c0.248,0,0.33,0.021,0.33,0.159c0,0.06-0.082,0.15-0.161,0.15c-0.133,0-0.283,0-0.515,0.039
				c-0.565,0.087-0.743,0.362-0.79,1.027c-0.008,0.579-0.008,1.122-0.008,1.913v2.063c0,0.845-0.031,0.864-0.283,1.002
				c-1.315,0.628-3.203,0.827-4.398,0.827c-1.566,0-4.5-0.171-6.803-1.979c-1.269-0.983-2.466-2.966-2.466-5.273
				c0-2.959,1.63-5.04,3.457-6.065c1.854-1.043,3.908-1.173,5.49-1.173c1.31,0,2.773,0.223,3.155,0.304
				c0.432,0.093,1.17,0.201,1.681,0.201c0.194,0,0.256,0.079,0.256,0.165c0,0.26-0.118,0.766-0.118,2.612
				c0,0.3-0.089,0.391-0.235,0.391c-0.118,0-0.134-0.104-0.134-0.28c-0.018-0.233-0.15-0.782-0.477-1.218
				c-0.514-0.699-2.093-1.438-4.764-1.438c-1.241,0-2.742,0.091-4.325,1.198c-1.194,0.854-2.034,2.503-2.034,4.656
				c0,2.614,1.458,4.48,2.184,5.118c1.635,1.407,3.375,1.93,5.282,1.93c0.724,0,1.682-0.064,2.229-0.352
				c0.267-0.121,0.427-0.211,0.427-0.567V43.644z"/>
		</g>
		<g>
			<path fill="#929497" d="M201.871,46.312c-2.274-1.888-2.836-4.371-2.836-6.437c0-1.459,0.544-3.999,2.628-5.942
				c1.418-1.308,3.541-2.326,7.158-2.326c0.944,0,2.256,0.067,3.411,0.258c0.898,0.159,1.637,0.288,2.388,0.33
				c0.246,0.029,0.298,0.108,0.298,0.248c0,0.169-0.063,0.436-0.105,1.214c-0.058,0.713-0.058,1.917-0.075,2.232
				c-0.027,0.328-0.07,0.464-0.199,0.464c-0.166,0-0.197-0.15-0.197-0.464c0-0.848-0.385-1.73-0.986-2.218
				c-0.816-0.642-2.627-1.228-4.697-1.228c-3.122,0-4.571,0.84-5.385,1.585c-1.725,1.519-2.123,3.462-2.123,5.676
				c0,4.152,3.45,7.962,8.471,7.962c1.752,0,3.141-0.191,4.088-1.098c0.484-0.468,0.793-1.421,0.854-1.819
				c0.059-0.238,0.105-0.326,0.251-0.326c0.105,0,0.166,0.152,0.166,0.326c0,0.15-0.299,2.044-0.521,2.778
				c-0.145,0.419-0.191,0.467-0.619,0.638c-0.928,0.346-2.713,0.5-4.219,0.5C206.104,48.665,203.729,47.855,201.871,46.312z"/>
			<path fill="#929497" d="M227.401,34.112c4.646,0,8.182,2.631,8.182,6.933c0,4.137-3.327,7.558-8.299,7.558
				c-5.648,0-8.061-3.942-8.061-7.27C219.224,38.357,221.71,34.112,227.401,34.112z M227.87,47.842c1.859,0,5.583-0.916,5.583-6.262
				c0-4.446-2.898-6.771-6.169-6.771c-3.438,0-5.937,1.997-5.937,6.015C221.348,45.147,224.145,47.842,227.87,47.842z"/>
			<path fill="#929497" d="M242.525,45.831c0.053,1.535,0.236,1.985,0.787,2.115c0.384,0.089,0.853,0.103,1.032,0.103
				c0.103,0,0.172,0.068,0.172,0.164c0,0.093-0.146,0.152-0.38,0.152c-1.163,0-1.991-0.072-2.185-0.072
				c-0.177,0-1.048,0.072-1.979,0.072c-0.22,0-0.341-0.022-0.341-0.152c0-0.096,0.078-0.164,0.169-0.164
				c0.172,0,0.526-0.014,0.835-0.103c0.52-0.13,0.594-0.63,0.594-2.305v-10.6c0-0.742,0.113-0.929,0.279-0.929
				c0.237,0,0.593,0.369,0.803,0.567c0.336,0.308,3.329,3.262,6.518,6.31c2.04,1.958,4.254,4.159,4.887,4.76l-0.221-9.266
				c-0.016-1.198-0.137-1.608-0.769-1.715c-0.369-0.072-0.837-0.089-1.007-0.089c-0.145,0-0.156-0.112-0.156-0.17
				c0-0.116,0.156-0.139,0.392-0.139c0.932,0,1.921,0.046,2.157,0.046c0.235,0,0.913-0.046,1.771-0.046
				c0.209,0,0.373,0.022,0.373,0.139c0,0.058-0.11,0.17-0.243,0.17c-0.102,0-0.244,0-0.483,0.04
				c-0.695,0.129-0.738,0.499-0.738,1.608l-0.048,10.841c0,1.209-0.027,1.319-0.158,1.319c-0.203,0-0.426-0.144-1.566-1.12
				c-0.218-0.18-3.199-2.904-5.389-5.009c-2.392-2.326-4.709-4.598-5.353-5.246L242.525,45.831z"/>
			<path fill="#929497" d="M261.226,48.095c-0.291-0.128-0.306-0.191-0.306-0.697c0-0.911,0.081-1.649,0.113-1.949
				c0-0.198,0.047-0.301,0.164-0.301c0.118,0,0.193,0.055,0.193,0.207c0,0.155,0,0.41,0.058,0.683
				c0.343,1.342,1.882,1.818,3.261,1.818c2.05,0,3.111-1.062,3.111-2.448c0-1.326-0.777-1.97-2.612-3.221l-0.923-0.656
				c-2.247-1.538-2.97-2.678-2.97-3.961c0-2.174,1.859-3.478,4.573-3.478c0.812,0,1.656,0.105,2.14,0.208
				c0.396,0.093,0.562,0.093,0.727,0.093c0.161,0,0.205,0.023,0.205,0.134c0,0.09-0.087,0.691-0.087,1.957
				c0,0.281-0.027,0.417-0.166,0.417c-0.146,0-0.161-0.095-0.191-0.245c-0.012-0.211-0.173-0.714-0.299-0.919
				c-0.146-0.203-0.82-0.908-2.674-0.908c-1.501,0-2.75,0.705-2.75,2.005c0,1.174,0.633,1.847,2.671,3.13l0.588,0.369
				c2.51,1.589,3.377,2.872,3.377,4.461c0,1.08-0.441,2.263-1.92,3.152c-0.868,0.526-2.147,0.656-3.287,0.656
				C263.263,48.603,262.071,48.473,261.226,48.095z"/>
			<path fill="#929497" d="M281.517,42.988c0,1.777,0,3.241,0.091,3.999c0.069,0.541,0.176,0.897,0.808,0.98
				c0.283,0.046,0.744,0.082,0.932,0.082c0.148,0,0.16,0.095,0.16,0.164c0,0.08-0.081,0.152-0.321,0.152
				c-1.12,0-2.437-0.072-2.555-0.072c-0.104,0-1.533,0.072-2.14,0.072c-0.234,0-0.321-0.06-0.321-0.152
				c0-0.069,0.042-0.138,0.16-0.138c0.189,0,0.417-0.04,0.609-0.081c0.425-0.091,0.543-0.467,0.605-1.008
				c0.097-0.758,0.097-2.222,0.097-3.999v-7.771l-2.98,0.049c-1.296,0.019-1.783,0.15-2.093,0.581
				c-0.226,0.335-0.252,0.463-0.321,0.597c-0.048,0.142-0.124,0.167-0.217,0.167c-0.053,0-0.146-0.042-0.146-0.152
				c0-0.19,0.4-1.843,0.458-2c0.016-0.109,0.131-0.347,0.209-0.347c0.13,0,0.351,0.148,0.917,0.223
				c0.58,0.057,1.385,0.081,1.621,0.081h7.796c0.675,0,1.131-0.046,1.474-0.081c0.314-0.047,0.502-0.093,0.579-0.093
				c0.102,0,0.102,0.108,0.102,0.217c0,0.56-0.062,1.894-0.062,2.111c0,0.151-0.104,0.236-0.191,0.236
				c-0.105,0-0.145-0.062-0.177-0.323l-0.031-0.198c-0.054-0.562-0.499-0.981-2.479-1.019l-2.583-0.049V42.988z"/>
			<path fill="#929497" d="M293.088,39.725c0-2.866,0-3.398-0.044-3.988c-0.06-0.627-0.162-0.927-0.84-1.018
				c-0.175-0.023-0.531-0.04-0.711-0.04c-0.071,0-0.162-0.091-0.162-0.152c0-0.111,0.091-0.157,0.322-0.157
				c0.946,0,2.332,0.046,2.436,0.046c0.227,0,1.956-0.046,2.585-0.046c1.31,0,2.776,0.111,3.868,0.809
				c0.502,0.355,1.413,1.242,1.413,2.515c0,1.382-0.6,2.708-2.532,4.229c1.697,1.956,3.121,3.634,4.319,4.784
				c1.098,1.043,1.787,1.221,2.302,1.288c0.4,0.055,0.604,0.055,0.719,0.055c0.122,0,0.196,0.095,0.196,0.164
				c0,0.093-0.118,0.152-0.498,0.152h-1.289c-1.182,0-1.682-0.113-2.206-0.371c-0.894-0.441-1.639-1.333-2.809-2.722
				c-0.869-0.999-1.787-2.203-2.231-2.695c-0.099-0.098-0.146-0.109-0.274-0.109l-2.646-0.05c-0.084,0-0.13,0.05-0.13,0.159v0.43
				c0,1.787,0,3.222,0.085,3.979c0.079,0.541,0.193,0.897,0.829,0.98c0.28,0.046,0.723,0.082,0.916,0.082
				c0.148,0,0.156,0.095,0.156,0.164c0,0.08-0.087,0.152-0.335,0.152c-1.126,0-2.438-0.072-2.525-0.072
				c-0.016,0-1.401,0.072-2.033,0.072c-0.204,0-0.326-0.06-0.326-0.152c0-0.069,0.031-0.164,0.146-0.164
				c0.192,0,0.459-0.036,0.652-0.082c0.384-0.083,0.441-0.439,0.528-0.98c0.119-0.758,0.119-2.222,0.119-3.999V39.725z
				 M294.875,41.291c0,0.108,0.046,0.178,0.13,0.239c0.317,0.148,1.361,0.28,2.289,0.28c0.486,0,1.052-0.018,1.547-0.328
				c0.695-0.438,1.241-1.408,1.241-2.826c0-2.304-1.354-3.638-3.57-3.638c-0.605,0-1.266,0.077-1.473,0.115
				c-0.091,0.044-0.164,0.112-0.164,0.215V41.291z"/>
			<path fill="#929497" d="M309.56,39.725c0-2.866,0-3.398-0.044-3.988c-0.046-0.588-0.164-0.927-0.859-1.018
				c-0.146-0.023-0.503-0.04-0.696-0.04c-0.074,0-0.156-0.091-0.156-0.152c0-0.111,0.082-0.157,0.322-0.157
				c0.941,0,2.188,0.046,2.38,0.046c0.188,0,1.468-0.046,2.074-0.046c0.24,0,0.361,0.046,0.361,0.157
				c0,0.062-0.094,0.152-0.192,0.152c-0.134,0-0.252,0-0.503,0.04c-0.55,0.091-0.669,0.416-0.711,1.018
				c-0.059,0.59-0.059,1.123-0.059,3.988v2.594c0,2.672,0.637,3.782,1.535,4.512c1.006,0.854,1.904,1.012,3.065,1.012
				c1.274,0,2.493-0.525,3.205-1.305c0.96-1.074,1.165-2.593,1.165-4.482v-2.331c0-2.866-0.027-3.398-0.037-3.988
				c-0.038-0.588-0.15-0.927-0.831-1.018c-0.16-0.023-0.519-0.04-0.711-0.04c-0.092,0-0.159-0.091-0.159-0.152
				c0-0.111,0.102-0.157,0.334-0.157c0.916,0,2.111,0.046,2.234,0.046c0.131,0,1.121-0.046,1.726-0.046
				c0.232,0,0.335,0.046,0.335,0.157c0,0.062-0.074,0.152-0.167,0.152c-0.138,0-0.239,0-0.526,0.04
				c-0.54,0.11-0.656,0.416-0.721,1.018c-0.045,0.59-0.011,1.123-0.011,3.988v1.975c0,2.005-0.287,4.25-1.941,5.549
				c-1.483,1.201-3.095,1.354-4.305,1.354c-0.676,0-2.847-0.05-4.305-1.309c-1.006-0.874-1.803-2.146-1.803-4.846V39.725z"/>
			<path fill="#929497" d="M329.711,46.624c-2.016-1.613-2.501-3.722-2.501-5.484c0-1.237,0.485-3.393,2.313-5.044
				c1.237-1.108,3.128-1.983,6.298-1.983c0.82,0,1.982,0.068,3,0.223c0.786,0.124,1.429,0.253,2.109,0.281
				c0.229,0,0.27,0.079,0.27,0.193c0,0.148-0.041,0.369-0.109,1.038c-0.007,0.612-0.007,1.643-0.034,1.9
				c-0.034,0.289-0.126,0.383-0.239,0.383c-0.136,0-0.164-0.123-0.164-0.383c0-0.722-0.32-1.462-0.875-1.858
				c-0.718-0.561-2.221-1.014-4.053-1.014c-2.659,0-3.93,0.658-4.65,1.273c-1.521,1.314-1.846,2.967-1.846,4.841
				c0,3.543,3.024,6.696,7.442,6.696c1.549,0,2.577-0.109,3.395-0.866c0.457-0.419,0.734-1.204,0.799-1.546
				c0.055-0.2,0.065-0.261,0.219-0.261c0.086,0,0.177,0.136,0.177,0.261c0,0.135-0.286,1.732-0.488,2.365
				c-0.119,0.356-0.161,0.411-0.522,0.548c-0.838,0.301-2.386,0.417-3.714,0.417C333.423,48.603,331.339,47.927,329.711,46.624z"/>
			<path fill="#929497" d="M352.323,42.988c0,1.777,0,3.241,0.075,3.999c0.074,0.541,0.179,0.897,0.813,0.98
				c0.275,0.046,0.755,0.082,0.926,0.082c0.154,0,0.164,0.095,0.164,0.164c0,0.08-0.089,0.152-0.32,0.152
				c-1.121,0-2.441-0.072-2.558-0.072c-0.105,0-1.521,0.072-2.139,0.072c-0.218,0-0.321-0.06-0.321-0.152
				c0-0.069,0.041-0.138,0.157-0.138c0.194,0,0.431-0.04,0.608-0.081c0.432-0.091,0.547-0.467,0.622-1.008
				c0.082-0.758,0.082-2.222,0.082-3.999v-7.771l-2.977,0.049c-1.288,0.019-1.78,0.15-2.095,0.581
				c-0.223,0.335-0.254,0.463-0.331,0.597c-0.038,0.142-0.103,0.167-0.201,0.167c-0.049,0-0.131-0.042-0.131-0.152
				c0-0.19,0.383-1.843,0.44-2c0.018-0.109,0.134-0.347,0.206-0.347c0.132,0,0.352,0.148,0.919,0.223
				c0.573,0.057,1.388,0.081,1.619,0.081h7.778c0.689,0,1.148-0.046,1.493-0.081c0.305-0.047,0.498-0.093,0.591-0.093
				c0.083,0,0.083,0.108,0.083,0.217c0,0.56-0.069,1.894-0.069,2.111c0,0.151-0.096,0.236-0.181,0.236
				c-0.103,0-0.147-0.062-0.182-0.323l-0.011-0.198c-0.071-0.562-0.519-0.981-2.494-1.019l-2.569-0.049V42.988z"/>
			<path fill="#929497" d="M365.771,42.988c0,1.777,0,3.241,0.089,3.999c0.074,0.541,0.13,0.897,0.737,0.98
				c0.309,0.046,0.756,0.082,0.944,0.082c0.122,0,0.159,0.095,0.159,0.164c0,0.08-0.085,0.152-0.321,0.152
				c-1.15,0-2.49-0.072-2.586-0.072c-0.116,0-1.4,0.072-2.033,0.072c-0.202,0-0.321-0.06-0.321-0.152
				c0-0.069,0.037-0.164,0.157-0.164c0.181,0,0.448-0.036,0.639-0.082c0.376-0.083,0.459-0.439,0.533-0.98
				c0.099-0.758,0.13-2.222,0.13-3.999v-3.263c0-2.866,0-3.398-0.058-3.988c-0.045-0.627-0.229-0.908-0.663-1
				c-0.239-0.042-0.488-0.058-0.619-0.058c-0.109,0-0.178-0.091-0.178-0.152c0-0.111,0.096-0.157,0.335-0.157
				c0.678,0,1.962,0.046,2.078,0.046c0.096,0,1.436-0.046,2.071-0.046c0.231,0,0.328,0.046,0.328,0.157
				c0,0.062-0.097,0.152-0.165,0.152c-0.136,0-0.28,0-0.519,0.04c-0.562,0.11-0.677,0.377-0.725,1.018
				c-0.014,0.59-0.014,1.123-0.014,3.988V42.988z"/>
			<path fill="#929497" d="M380.293,34.112c4.651,0,8.161,2.631,8.161,6.933c0,4.137-3.308,7.558-8.277,7.558
				c-5.672,0-8.088-3.942-8.088-7.27C372.089,38.357,374.584,34.112,380.293,34.112z M380.766,47.842c1.841,0,5.58-0.916,5.58-6.262
				c0-4.446-2.923-6.771-6.169-6.771c-3.454,0-5.946,1.997-5.946,6.015C374.23,45.147,377.034,47.842,380.766,47.842z"/>
			<path fill="#929497" d="M395.397,45.831c0.048,1.535,0.226,1.985,0.803,2.115c0.369,0.089,0.831,0.103,1.032,0.103
				c0.093,0,0.167,0.068,0.167,0.164c0,0.093-0.149,0.152-0.386,0.152c-1.165,0-1.993-0.072-2.169-0.072
				c-0.207,0-1.066,0.072-2.007,0.072c-0.208,0-0.324-0.022-0.324-0.152c0-0.096,0.067-0.164,0.164-0.164
				c0.16,0,0.547-0.014,0.854-0.103c0.499-0.13,0.575-0.63,0.575-2.305v-10.6c0-0.742,0.119-0.929,0.279-0.929
				c0.236,0,0.588,0.369,0.794,0.567c0.345,0.308,3.337,3.262,6.54,6.31c2.022,1.958,4.234,4.159,4.872,4.76l-0.207-9.266
				c-0.034-1.198-0.147-1.608-0.766-1.715c-0.387-0.072-0.858-0.089-1.015-0.089c-0.158,0-0.165-0.112-0.165-0.17
				c0-0.116,0.165-0.139,0.396-0.139c0.929,0,1.914,0.046,2.153,0.046c0.232,0,0.915-0.046,1.77-0.046
				c0.204,0,0.369,0.022,0.369,0.139c0,0.058-0.103,0.17-0.239,0.17c-0.082,0-0.246,0-0.499,0.04
				c-0.662,0.129-0.721,0.499-0.721,1.608l-0.045,10.841c0,1.209-0.014,1.319-0.156,1.319c-0.216,0-0.424-0.144-1.587-1.12
				c-0.207-0.18-3.185-2.904-5.371-5.009c-2.389-2.326-4.706-4.598-5.345-5.246L395.397,45.831z"/>
		</g>
	</g>
	<polygon fill="#39BEBE" points="185.948,69.973 157.539,26.622 162.936,90.046 	"/>
</g>
</svg>
