<?xml version="1.0" encoding="utf-8"?>
<!-- Generator: Adobe Illustrator 16.0.0, SVG Export Plug-In . SVG Version: 6.00 Build 0)  -->
<!DOCTYPE svg PUBLIC "-//W3C//DTD SVG 1.1//EN" "http://www.w3.org/Graphics/SVG/1.1/DTD/svg11.dtd">
<svg version="1.1" id="Layer_1" xmlns="http://www.w3.org/2000/svg" xmlns:xlink="http://www.w3.org/1999/xlink" x="0px" y="0px"
	 width="460px" height="70px" viewBox="0 0 460 70" style="enable-background:new 0 0 460 70;" xml:space="preserve">
<style type="text/css">
<![CDATA[
	.st0{fill:#939598;}
	.st1{fill:#3ABFBF;}
]]>
</style>
<g>
	<g>
		<path class="st0" d="M149.295,65.954l-27.93-48.011L95.338,65.954h-5.89L123.12,4.161h3.193l36.128,61.793H149.295z"/>
	</g>
	<g>
		<g>
			<path class="st0" d="M1.568,25.959c0-2.62,0-3.09-0.038-3.627c-0.042-0.568-0.175-0.832-0.768-0.953
				c-0.148-0.032-0.458-0.047-0.623-0.047c-0.077,0-0.14-0.039-0.14-0.106c0-0.096,0.089-0.131,0.285-0.131
				c0.817,0,1.888,0.046,1.992,0.046c0.169,0,1.213-0.046,1.758-0.046c0.193,0,0.284,0.036,0.284,0.131
				c0,0.067-0.065,0.106-0.147,0.106c-0.122,0-0.237,0.015-0.454,0.047c-0.476,0.083-0.624,0.374-0.657,0.953
				c-0.038,0.537-0.038,1.007-0.038,3.627v1.001h0.07c0.297-0.319,3.572-3.405,4.231-4.06c0.499-0.484,0.975-0.916,0.975-1.202
				c0-0.198-0.088-0.306-0.236-0.352c-0.091-0.038-0.161-0.07-0.161-0.144c0-0.073,0.09-0.108,0.202-0.108
				c0.375,0,0.933,0.046,1.366,0.046c0.093,0,1.288-0.046,1.742-0.046c0.191,0,0.269,0.036,0.269,0.108
				c0,0.09-0.042,0.129-0.189,0.129c-0.26,0-0.639,0.083-1.002,0.23c-0.738,0.306-1.147,0.726-1.954,1.44
				c-0.455,0.404-3.593,3.255-3.98,3.669c0.469,0.487,4.231,4.091,4.969,4.735c1.522,1.301,1.828,1.572,2.709,1.909
				c0.463,0.183,0.986,0.21,1.114,0.21c0.133,0,0.238,0.036,0.238,0.105c0,0.083-0.094,0.138-0.402,0.138h-0.92
				c-0.512,0-0.851,0-1.25-0.046c-0.965-0.071-1.422-0.446-2.182-1.016c-0.817-0.616-4.654-4.452-5.529-5.442h-0.08v1.642
				c0,1.604,0,2.93,0.08,3.636c0.058,0.481,0.16,0.855,0.705,0.919c0.264,0.036,0.548,0.063,0.709,0.063
				c0.112,0,0.147,0.053,0.147,0.105c0,0.083-0.092,0.138-0.287,0.138c-0.887,0-1.931-0.055-2.083-0.055
				c-0.146,0-1.192,0.055-1.737,0.055c-0.203,0-0.296-0.046-0.296-0.138c0-0.053,0.044-0.105,0.146-0.105
				c0.163,0,0.391-0.027,0.545-0.063c0.365-0.064,0.457-0.438,0.527-0.919c0.09-0.706,0.09-2.032,0.09-3.636V25.959z"/>
			<path class="st0" d="M16.112,27.111c0-2.208,0-2.618-0.042-3.073c-0.039-0.483-0.114-0.715-0.656-0.785
				c-0.118-0.018-0.394-0.03-0.542-0.03c-0.042,0-0.123-0.07-0.123-0.118c0-0.085,0.081-0.121,0.259-0.121
				c0.718,0,1.752,0.036,1.843,0.036c0.116,0,3.435,0.016,3.798,0c0.31-0.019,0.594-0.062,0.727-0.09
				c0.072-0.008,0.139-0.062,0.221-0.062c0.042,0,0.07,0.062,0.07,0.133c0,0.104-0.097,0.266-0.128,0.674
				c-0.024,0.13-0.061,0.773-0.091,0.938c-0.027,0.067-0.072,0.153-0.147,0.153c-0.091,0-0.13-0.073-0.13-0.183
				c0-0.103-0.021-0.338-0.088-0.505c-0.115-0.237-0.276-0.338-1.138-0.439c-0.273-0.03-2.113-0.053-2.3-0.053
				c-0.067,0-0.088,0.053-0.088,0.154v3.878c0,0.102,0,0.153,0.088,0.153c0.199,0,2.3,0,2.654-0.037
				c0.387-0.039,0.622-0.061,0.784-0.207c0.112-0.095,0.181-0.18,0.239-0.18c0.054,0,0.078,0.033,0.078,0.118
				c0,0.084-0.078,0.314-0.127,0.79c-0.029,0.286-0.063,0.812-0.063,0.917c0,0.114-0.039,0.269-0.14,0.269
				c-0.078,0-0.111-0.048-0.111-0.132c0-0.137,0-0.291-0.083-0.47c-0.042-0.207-0.19-0.374-0.801-0.438
				c-0.436-0.051-2.141-0.068-2.419-0.068c-0.079,0-0.1,0.056-0.1,0.102v1.191c0,0.486-0.021,2.139,0,2.43
				c0.037,0.954,0.314,1.138,1.901,1.138c0.411,0,1.171,0,1.588-0.153c0.412-0.159,0.631-0.412,0.721-0.985
				c0.033-0.166,0.078-0.218,0.166-0.218c0.093,0,0.103,0.118,0.103,0.218c0,0.098-0.124,1.068-0.212,1.376
				c-0.118,0.367-0.275,0.367-0.886,0.367c-1.199,0-2.118-0.029-2.766-0.046c-0.672-0.038-1.09-0.038-1.321-0.038
				c-0.03,0-0.339,0-0.692,0.009c-0.306,0.029-0.659,0.046-0.92,0.046c-0.161,0-0.252-0.046-0.252-0.117
				c0-0.053,0.034-0.126,0.122-0.126c0.155,0,0.345-0.042,0.496-0.063c0.306-0.049,0.352-0.338,0.419-0.755
				c0.09-0.583,0.09-1.712,0.09-3.081V27.111z"/>
			<path class="st0" d="M28.098,31.816c0.035,1.183,0.184,1.529,0.616,1.63c0.281,0.068,0.647,0.079,0.793,0.079
				c0.07,0,0.127,0.053,0.127,0.126c0,0.071-0.103,0.117-0.296,0.117c-0.911,0-1.534-0.055-1.674-0.055
				c-0.146,0-0.817,0.055-1.543,0.055c-0.163,0-0.25-0.017-0.25-0.117c0-0.074,0.06-0.126,0.124-0.126
				c0.126,0,0.417-0.01,0.647-0.079c0.409-0.101,0.466-0.486,0.466-1.776v-8.168c0-0.571,0.08-0.716,0.206-0.716
				c0.184,0,0.458,0.285,0.627,0.437c0.245,0.237,2.57,2.513,5.027,4.862c1.571,1.509,3.262,3.205,3.749,3.668l-0.157-7.14
				c-0.021-0.923-0.112-1.239-0.593-1.322c-0.296-0.056-0.66-0.068-0.784-0.068c-0.1,0-0.128-0.087-0.128-0.131
				c0-0.09,0.128-0.107,0.307-0.107c0.733,0,1.483,0.036,1.674,0.036c0.172,0,0.694-0.036,1.356-0.036
				c0.157,0,0.28,0.017,0.28,0.107c0,0.044-0.065,0.131-0.168,0.131c-0.083,0-0.203,0-0.389,0.03
				c-0.523,0.1-0.565,0.385-0.565,1.239l-0.037,8.353c0,0.932-0.012,1.017-0.124,1.017c-0.158,0-0.314-0.111-1.207-0.863
				c-0.161-0.138-2.467-2.237-4.15-3.859c-1.832-1.792-3.628-3.543-4.113-4.042L28.098,31.816z"/>
			<path class="st0" d="M43.487,27.111c0-2.208,0-2.618-0.037-3.073c-0.045-0.483-0.136-0.715-0.647-0.785
				c-0.13-0.018-0.409-0.03-0.548-0.03c-0.058,0-0.127-0.07-0.127-0.118c0-0.085,0.069-0.121,0.245-0.121
				c0.723,0,1.758,0.036,1.848,0.036c0.186,0,1.195-0.036,2.137-0.036c1.596,0,4.504-0.133,6.38,1.628
				c0.798,0.743,1.562,1.925,1.562,3.619c0,1.792-0.833,3.173-1.72,4.007c-0.692,0.652-2.112,1.643-4.817,1.643
				c-0.697,0-1.55-0.048-2.23-0.084c-0.694-0.046-1.242-0.084-1.312-0.084c-0.03,0-0.32,0.009-0.647,0.009
				c-0.329,0.029-0.705,0.046-0.954,0.046c-0.172,0-0.263-0.046-0.263-0.117c0-0.053,0.037-0.126,0.125-0.126
				c0.147,0,0.353-0.027,0.495-0.063c0.312-0.064,0.336-0.338,0.415-0.755c0.094-0.583,0.094-1.712,0.094-3.081V27.111z
				 M44.93,28.657c0,1.506,0,2.833,0.021,3.096c0.009,0.348,0.055,0.876,0.167,1.024c0.205,0.263,0.771,0.568,2.654,0.568
				c1.468,0,2.763-0.454,3.717-1.291c0.832-0.723,1.25-2.083,1.25-3.389c0-1.803-0.851-2.962-1.499-3.568
				c-1.5-1.407-3.252-1.596-5.15-1.596c-0.309,0-0.82,0.053-0.971,0.106c-0.133,0.052-0.188,0.116-0.188,0.284V28.657z"/>
			<path class="st0" d="M63.975,22.786c3.581,0,6.29,2.028,6.29,5.342c0,3.188-2.549,5.823-6.389,5.823
				c-4.358,0-6.213-3.037-6.213-5.601C57.662,26.058,59.571,22.786,63.975,22.786z M64.329,33.366c1.429,0,4.306-0.706,4.306-4.825
				c0-3.426-2.239-5.217-4.76-5.217c-2.654,0-4.573,1.539-4.573,4.635C59.302,31.29,61.448,33.366,64.329,33.366z"/>
			<path class="st0" d="M75.621,31.816c0.021,1.183,0.178,1.529,0.602,1.63c0.294,0.068,0.659,0.079,0.806,0.079
				c0.073,0,0.122,0.053,0.122,0.126c0,0.071-0.11,0.117-0.291,0.117c-0.9,0-1.532-0.055-1.683-0.055
				c-0.151,0-0.812,0.055-1.536,0.055c-0.159,0-0.25-0.017-0.25-0.117c0-0.074,0.044-0.126,0.124-0.126
				c0.126,0,0.405-0.01,0.647-0.079c0.402-0.101,0.458-0.486,0.458-1.776v-8.168c0-0.571,0.091-0.716,0.212-0.716
				c0.185,0,0.445,0.285,0.617,0.437c0.264,0.237,2.573,2.513,5.027,4.862c1.568,1.509,3.278,3.205,3.766,3.668l-0.162-7.14
				c-0.021-0.923-0.112-1.239-0.603-1.322c-0.284-0.056-0.65-0.068-0.774-0.068c-0.102,0-0.124-0.087-0.124-0.131
				c0-0.09,0.124-0.107,0.306-0.107c0.718,0,1.479,0.036,1.659,0.036c0.184,0,0.707-0.036,1.352-0.036
				c0.173,0,0.303,0.017,0.303,0.107c0,0.044-0.085,0.131-0.185,0.131c-0.07,0-0.207,0-0.385,0.03c-0.526,0.1-0.56,0.385-0.56,1.239
				l-0.036,8.353c0,0.932-0.021,1.017-0.127,1.017c-0.154,0-0.327-0.111-1.199-0.863c-0.175-0.138-2.47-2.237-4.152-3.859
				c-1.845-1.792-3.628-3.543-4.127-4.042L75.621,31.816z"/>
			<path class="st0" d="M98.6,30.131c0-1.165-0.042-1.327-0.696-1.444c-0.124-0.021-0.392-0.03-0.543-0.03
				c-0.055,0-0.125-0.07-0.125-0.116c0-0.106,0.07-0.122,0.263-0.122c0.715,0,1.787,0.037,1.874,0.037
				c0.069,0,1.072-0.037,1.556-0.037c0.191,0,0.254,0.016,0.254,0.122c0,0.046-0.063,0.116-0.124,0.116c-0.102,0-0.218,0-0.396,0.03
				c-0.436,0.067-0.572,0.279-0.608,0.792c-0.006,0.446-0.006,0.865-0.006,1.474v1.59c0,0.651-0.024,0.667-0.218,0.772
				c-1.013,0.483-2.468,0.637-3.389,0.637c-1.207,0-3.467-0.131-5.242-1.524c-0.978-0.757-1.9-2.286-1.9-4.063
				c0-2.28,1.255-3.884,2.663-4.674c1.428-0.804,3.011-0.904,4.23-0.904c1.009,0,2.137,0.172,2.431,0.234
				c0.333,0.071,0.902,0.154,1.295,0.154c0.15,0,0.198,0.061,0.198,0.127c0,0.2-0.091,0.59-0.091,2.012
				c0,0.231-0.069,0.301-0.181,0.301c-0.091,0-0.103-0.08-0.103-0.216c-0.014-0.18-0.116-0.603-0.368-0.938
				c-0.396-0.539-1.613-1.107-3.67-1.107c-0.956,0-2.113,0.07-3.333,0.923c-0.92,0.658-1.567,1.928-1.567,3.587
				c0,2.014,1.123,3.452,1.683,3.943c1.26,1.084,2.6,1.487,4.07,1.487c0.558,0,1.296-0.049,1.717-0.271
				c0.205-0.094,0.329-0.163,0.329-0.437V30.131z"/>
		</g>
		<g>
			<path class="st0" d="M155.548,32.187c-1.752-1.455-2.185-3.368-2.185-4.96c0-1.124,0.419-3.082,2.024-4.579
				c1.093-1.007,2.729-1.792,5.516-1.792c0.728,0,1.738,0.052,2.628,0.199c0.692,0.122,1.262,0.221,1.84,0.253
				c0.19,0.023,0.23,0.083,0.23,0.191c0,0.13-0.049,0.335-0.082,0.936c-0.045,0.549-0.045,1.477-0.058,1.72
				c-0.021,0.252-0.054,0.357-0.154,0.357c-0.127,0-0.151-0.115-0.151-0.357c0-0.654-0.296-1.334-0.76-1.709
				c-0.629-0.495-2.024-0.946-3.619-0.946c-2.406,0-3.523,0.647-4.149,1.222c-1.329,1.17-1.636,2.667-1.636,4.374
				c0,3.199,2.659,6.135,6.527,6.135c1.35,0,2.421-0.147,3.15-0.846c0.373-0.361,0.611-1.095,0.657-1.402
				c0.045-0.183,0.082-0.251,0.193-0.251c0.082,0,0.128,0.117,0.128,0.251c0,0.116-0.23,1.576-0.4,2.141
				c-0.112,0.323-0.147,0.359-0.478,0.491c-0.715,0.268-2.091,0.385-3.251,0.385C158.81,34,156.979,33.376,155.548,32.187z"/>
			<path class="st0" d="M175.22,22.786c3.58,0,6.304,2.028,6.304,5.342c0,3.188-2.563,5.823-6.395,5.823
				c-4.353,0-6.21-3.037-6.21-5.601C168.919,26.058,170.834,22.786,175.22,22.786z M175.582,33.366c1.432,0,4.301-0.706,4.301-4.825
				c0-3.426-2.233-5.217-4.754-5.217c-2.648,0-4.573,1.539-4.573,4.635C170.556,31.29,172.71,33.366,175.582,33.366z"/>
			<path class="st0" d="M186.874,31.816c0.04,1.183,0.181,1.529,0.605,1.63c0.296,0.068,0.657,0.079,0.796,0.079
				c0.079,0,0.132,0.053,0.132,0.126c0,0.071-0.111,0.117-0.292,0.117c-0.896,0-1.535-0.055-1.684-0.055
				c-0.136,0-0.808,0.055-1.525,0.055c-0.169,0-0.263-0.017-0.263-0.117c0-0.074,0.061-0.126,0.13-0.126
				c0.133,0,0.406-0.01,0.644-0.079c0.4-0.101,0.458-0.486,0.458-1.776v-8.168c0-0.571,0.088-0.716,0.216-0.716
				c0.182,0,0.456,0.285,0.617,0.437c0.259,0.237,2.566,2.513,5.022,4.862c1.572,1.509,3.278,3.205,3.766,3.668l-0.17-7.14
				c-0.013-0.923-0.105-1.239-0.593-1.322c-0.284-0.056-0.645-0.068-0.775-0.068c-0.111,0-0.12-0.087-0.12-0.131
				c0-0.09,0.12-0.107,0.302-0.107c0.718,0,1.479,0.036,1.662,0.036c0.181,0,0.703-0.036,1.365-0.036
				c0.16,0,0.287,0.017,0.287,0.107c0,0.044-0.085,0.131-0.188,0.131c-0.078,0-0.188,0-0.372,0.03
				c-0.536,0.1-0.569,0.385-0.569,1.239l-0.037,8.353c0,0.932-0.021,1.017-0.121,1.017c-0.157,0-0.329-0.111-1.207-0.863
				c-0.168-0.138-2.466-2.237-4.152-3.859c-1.843-1.792-3.629-3.543-4.125-4.042L186.874,31.816z"/>
			<path class="st0" d="M201.282,33.561c-0.224-0.099-0.235-0.147-0.235-0.537c0-0.702,0.062-1.271,0.088-1.502
				c0-0.153,0.036-0.232,0.126-0.232c0.091,0,0.148,0.042,0.148,0.159c0,0.12,0,0.316,0.045,0.527
				c0.264,1.034,1.45,1.401,2.513,1.401c1.579,0,2.396-0.818,2.396-1.887c0-1.022-0.599-1.518-2.012-2.481l-0.712-0.506
				c-1.731-1.185-2.288-2.063-2.288-3.052c0-1.676,1.433-2.68,3.523-2.68c0.626,0,1.277,0.082,1.649,0.16
				c0.306,0.071,0.434,0.071,0.56,0.071c0.124,0,0.158,0.019,0.158,0.104c0,0.069-0.067,0.533-0.067,1.508
				c0,0.216-0.021,0.322-0.128,0.322c-0.111,0-0.124-0.073-0.147-0.189c-0.009-0.163-0.133-0.55-0.23-0.708
				c-0.111-0.157-0.631-0.699-2.06-0.699c-1.156,0-2.119,0.542-2.119,1.544c0,0.904,0.487,1.423,2.059,2.412l0.452,0.284
				c1.935,1.225,2.603,2.213,2.603,3.438c0,0.832-0.341,1.743-1.479,2.429c-0.669,0.406-1.654,0.505-2.533,0.505
				C202.853,33.951,201.934,33.852,201.282,33.561z"/>
			<path class="st0" d="M216.917,29.625c0,1.369,0,2.498,0.07,3.081c0.053,0.417,0.136,0.691,0.622,0.755
				c0.219,0.036,0.573,0.063,0.718,0.063c0.114,0,0.124,0.074,0.124,0.126c0,0.062-0.063,0.117-0.248,0.117
				c-0.863,0-1.877-0.055-1.969-0.055c-0.08,0-1.181,0.055-1.647,0.055c-0.181,0-0.248-0.046-0.248-0.117
				c0-0.053,0.032-0.106,0.123-0.106c0.146,0,0.321-0.031,0.47-0.062c0.327-0.07,0.418-0.359,0.466-0.776
				c0.075-0.583,0.075-1.712,0.075-3.081v-5.987l-2.297,0.038c-0.998,0.015-1.373,0.116-1.612,0.448
				c-0.174,0.258-0.194,0.357-0.248,0.459c-0.036,0.11-0.095,0.129-0.167,0.129c-0.04,0-0.111-0.032-0.111-0.118
				c0-0.146,0.309-1.42,0.353-1.541c0.013-0.084,0.101-0.268,0.161-0.268c0.1,0,0.27,0.114,0.706,0.172
				c0.447,0.044,1.067,0.062,1.25,0.062h6.007c0.52,0,0.871-0.036,1.135-0.062c0.242-0.036,0.387-0.072,0.447-0.072
				c0.077,0,0.077,0.083,0.077,0.167c0,0.431-0.047,1.459-0.047,1.626c0,0.116-0.081,0.182-0.147,0.182
				c-0.081,0-0.111-0.048-0.137-0.249l-0.023-0.152c-0.042-0.433-0.385-0.756-1.911-0.785l-1.99-0.038V29.625z"/>
			<path class="st0" d="M225.833,27.111c0-2.208,0-2.618-0.033-3.073c-0.046-0.483-0.125-0.715-0.647-0.785
				c-0.135-0.018-0.409-0.03-0.548-0.03c-0.056,0-0.125-0.07-0.125-0.118c0-0.085,0.069-0.121,0.249-0.121
				c0.729,0,1.797,0.036,1.876,0.036c0.175,0,1.508-0.036,1.992-0.036c1.009,0,2.139,0.086,2.98,0.623
				c0.387,0.273,1.089,0.957,1.089,1.938c0,1.065-0.462,2.087-1.951,3.259c1.308,1.507,2.405,2.8,3.328,3.687
				c0.846,0.803,1.377,0.94,1.773,0.992c0.309,0.042,0.466,0.042,0.555,0.042c0.093,0,0.15,0.074,0.15,0.126
				c0,0.071-0.091,0.117-0.384,0.117h-0.993c-0.91,0-1.296-0.087-1.7-0.286c-0.688-0.34-1.263-1.027-2.164-2.097
				c-0.67-0.769-1.377-1.697-1.719-2.077c-0.076-0.076-0.112-0.084-0.212-0.084l-2.039-0.038c-0.065,0-0.101,0.038-0.101,0.122
				v0.331c0,1.377,0,2.483,0.065,3.066c0.062,0.417,0.149,0.691,0.639,0.755c0.216,0.036,0.558,0.063,0.706,0.063
				c0.114,0,0.121,0.074,0.121,0.126c0,0.062-0.067,0.117-0.259,0.117c-0.867,0-1.878-0.055-1.945-0.055
				c-0.012,0-1.08,0.055-1.566,0.055c-0.157,0-0.252-0.046-0.252-0.117c0-0.053,0.024-0.126,0.112-0.126
				c0.149,0,0.354-0.027,0.503-0.063c0.296-0.064,0.341-0.338,0.408-0.755c0.091-0.583,0.091-1.712,0.091-3.081V27.111z
				 M227.21,28.318c0,0.083,0.035,0.137,0.101,0.185c0.244,0.114,1.049,0.216,1.764,0.216c0.375,0,0.811-0.014,1.191-0.253
				c0.536-0.337,0.957-1.084,0.957-2.177c0-1.775-1.044-2.803-2.751-2.803c-0.467,0-0.976,0.06-1.135,0.089
				c-0.07,0.034-0.127,0.086-0.127,0.166V28.318z"/>
			<path class="st0" d="M238.525,27.111c0-2.208,0-2.618-0.034-3.073c-0.035-0.453-0.126-0.715-0.662-0.785
				c-0.111-0.018-0.388-0.03-0.536-0.03c-0.058,0-0.121-0.07-0.121-0.118c0-0.085,0.063-0.121,0.249-0.121
				c0.725,0,1.685,0.036,1.834,0.036c0.146,0,1.131-0.036,1.598-0.036c0.186,0,0.279,0.036,0.279,0.121
				c0,0.048-0.073,0.118-0.149,0.118c-0.103,0-0.194,0-0.388,0.03c-0.423,0.07-0.515,0.32-0.547,0.785
				c-0.045,0.455-0.045,0.865-0.045,3.073v1.999c0,2.059,0.49,2.914,1.182,3.477c0.775,0.658,1.468,0.779,2.362,0.779
				c0.982,0,1.922-0.405,2.47-1.005c0.739-0.827,0.898-1.998,0.898-3.454v-1.796c0-2.208-0.021-2.618-0.029-3.073
				c-0.028-0.453-0.116-0.715-0.641-0.785c-0.123-0.018-0.399-0.03-0.547-0.03c-0.071,0-0.123-0.07-0.123-0.118
				c0-0.085,0.078-0.121,0.257-0.121c0.706,0,1.628,0.036,1.722,0.036c0.101,0,0.864-0.036,1.33-0.036
				c0.18,0,0.259,0.036,0.259,0.121c0,0.048-0.058,0.118-0.129,0.118c-0.106,0-0.185,0-0.406,0.03
				c-0.416,0.085-0.505,0.32-0.556,0.785c-0.034,0.455-0.008,0.865-0.008,3.073v1.522c0,1.544-0.222,3.274-1.495,4.275
				c-1.144,0.926-2.386,1.043-3.317,1.043c-0.521,0-2.193-0.038-3.317-1.008c-0.774-0.673-1.389-1.654-1.389-3.734V27.111z"/>
			<path class="st0" d="M254.053,32.427c-1.553-1.243-1.928-2.868-1.928-4.226c0-0.953,0.375-2.614,1.783-3.887
				c0.953-0.854,2.41-1.528,4.853-1.528c0.632,0,1.527,0.053,2.312,0.172c0.605,0.096,1.101,0.195,1.625,0.217
				c0.177,0,0.208,0.061,0.208,0.148c0,0.115-0.031,0.285-0.084,0.8c-0.006,0.471-0.006,1.266-0.026,1.464
				c-0.026,0.222-0.098,0.295-0.185,0.295c-0.104,0-0.126-0.095-0.126-0.295c0-0.557-0.247-1.126-0.674-1.432
				c-0.554-0.432-1.712-0.782-3.123-0.782c-2.049,0-3.028,0.507-3.584,0.981c-1.172,1.013-1.422,2.286-1.422,3.729
				c0,2.73,2.33,5.16,5.734,5.16c1.193,0,1.985-0.084,2.615-0.667c0.353-0.323,0.566-0.928,0.615-1.191
				c0.043-0.154,0.051-0.201,0.169-0.201c0.066,0,0.137,0.105,0.137,0.201c0,0.104-0.221,1.335-0.376,1.823
				c-0.092,0.274-0.124,0.316-0.403,0.421c-0.645,0.232-1.838,0.321-2.861,0.321C256.912,33.951,255.307,33.431,254.053,32.427z"/>
			<path class="st0" d="M271.477,29.625c0,1.369,0,2.498,0.058,3.081c0.058,0.417,0.138,0.691,0.626,0.755
				c0.213,0.036,0.582,0.063,0.714,0.063c0.119,0,0.127,0.074,0.127,0.126c0,0.062-0.069,0.117-0.247,0.117
				c-0.864,0-1.881-0.055-1.971-0.055c-0.081,0-1.172,0.055-1.648,0.055c-0.168,0-0.247-0.046-0.247-0.117
				c0-0.053,0.031-0.106,0.121-0.106c0.149,0,0.332-0.031,0.469-0.062c0.332-0.07,0.421-0.359,0.479-0.776
				c0.062-0.583,0.062-1.712,0.062-3.081v-5.987l-2.293,0.038c-0.992,0.015-1.371,0.116-1.614,0.448
				c-0.171,0.258-0.195,0.357-0.255,0.459c-0.029,0.11-0.079,0.129-0.155,0.129c-0.038,0-0.101-0.032-0.101-0.118
				c0-0.146,0.295-1.42,0.34-1.541c0.014-0.084,0.103-0.268,0.158-0.268c0.102,0,0.271,0.114,0.708,0.172
				c0.442,0.044,1.069,0.062,1.248,0.062h5.993c0.531,0,0.885-0.036,1.15-0.062c0.234-0.036,0.384-0.072,0.455-0.072
				c0.064,0,0.064,0.083,0.064,0.167c0,0.431-0.054,1.459-0.054,1.626c0,0.116-0.073,0.182-0.14,0.182
				c-0.079,0-0.113-0.048-0.14-0.249l-0.008-0.152c-0.056-0.433-0.399-0.756-1.923-0.785l-1.979-0.038V29.625z"/>
			<path class="st0" d="M281.837,29.625c0,1.369,0,2.498,0.069,3.081c0.058,0.417,0.1,0.691,0.568,0.755
				c0.237,0.036,0.582,0.063,0.728,0.063c0.094,0,0.123,0.074,0.123,0.126c0,0.062-0.065,0.117-0.248,0.117
				c-0.887,0-1.919-0.055-1.993-0.055c-0.089,0-1.079,0.055-1.566,0.055c-0.156,0-0.248-0.046-0.248-0.117
				c0-0.053,0.029-0.126,0.122-0.126c0.139,0,0.345-0.027,0.492-0.063c0.289-0.064,0.354-0.338,0.411-0.755
				c0.075-0.583,0.1-1.712,0.1-3.081v-2.515c0-2.208,0-2.618-0.045-3.073c-0.034-0.483-0.177-0.699-0.511-0.77
				c-0.185-0.032-0.376-0.045-0.478-0.045c-0.084,0-0.137-0.07-0.137-0.118c0-0.085,0.074-0.121,0.259-0.121
				c0.521,0,1.512,0.036,1.601,0.036c0.074,0,1.106-0.036,1.597-0.036c0.178,0,0.253,0.036,0.253,0.121
				c0,0.048-0.075,0.118-0.128,0.118c-0.104,0-0.216,0-0.399,0.03c-0.433,0.085-0.521,0.291-0.558,0.785
				c-0.012,0.455-0.012,0.865-0.012,3.073V29.625z"/>
			<path class="st0" d="M293.028,22.786c3.583,0,6.288,2.028,6.288,5.342c0,3.188-2.549,5.823-6.378,5.823
				c-4.371,0-6.232-3.037-6.232-5.601C286.706,26.058,288.629,22.786,293.028,22.786z M293.392,33.366c1.419,0,4.3-0.706,4.3-4.825
				c0-3.426-2.252-5.217-4.753-5.217c-2.662,0-4.582,1.539-4.582,4.635C288.356,31.29,290.517,33.366,293.392,33.366z"/>
			<path class="st0" d="M304.666,31.816c0.037,1.183,0.174,1.529,0.619,1.63c0.284,0.068,0.64,0.079,0.795,0.079
				c0.071,0,0.129,0.053,0.129,0.126c0,0.071-0.115,0.117-0.298,0.117c-0.897,0-1.535-0.055-1.671-0.055
				c-0.159,0-0.822,0.055-1.546,0.055c-0.161,0-0.25-0.017-0.25-0.117c0-0.074,0.052-0.126,0.126-0.126
				c0.124,0,0.421-0.01,0.658-0.079c0.384-0.101,0.442-0.486,0.442-1.776v-8.168c0-0.571,0.092-0.716,0.216-0.716
				c0.182,0,0.452,0.285,0.611,0.437c0.266,0.237,2.571,2.513,5.039,4.862c1.559,1.509,3.263,3.205,3.755,3.668l-0.16-7.14
				c-0.026-0.923-0.113-1.239-0.59-1.322c-0.298-0.056-0.661-0.068-0.782-0.068s-0.127-0.087-0.127-0.131
				c0-0.09,0.127-0.107,0.306-0.107c0.716,0,1.475,0.036,1.659,0.036c0.18,0,0.705-0.036,1.364-0.036
				c0.157,0,0.284,0.017,0.284,0.107c0,0.044-0.079,0.131-0.185,0.131c-0.063,0-0.189,0-0.385,0.03
				c-0.51,0.1-0.556,0.385-0.556,1.239l-0.034,8.353c0,0.932-0.011,1.017-0.12,1.017c-0.167,0-0.326-0.111-1.223-0.863
				c-0.16-0.138-2.454-2.237-4.139-3.859c-1.841-1.792-3.626-3.543-4.118-4.042L304.666,31.816z"/>
		</g>
	</g>
	<polygon class="st1" points="143.279,50.418 121.389,17.015 125.547,65.885 	"/>
</g>
</svg>
