<?xml version="1.0" encoding="utf-8"?>
<!-- Generator: Adobe Illustrator 16.0.0, SVG Export Plug-In . SVG Version: 6.00 Build 0)  -->
<svg version="1.2" baseProfile="tiny" id="Layer_1" xmlns="http://www.w3.org/2000/svg" xmlns:xlink="http://www.w3.org/1999/xlink"
	 x="0px" y="0px" width="960px" height="100px" viewBox="0 0 960 100" xml:space="preserve">
<g>
	<g>
		<path fill="#929497" d="M469.825,87.747L435.702,29.09l-31.798,58.657h-7.195l41.138-75.494h3.901l44.139,75.494H469.825z"/>
	</g>
	<g>
		<g>
			<path fill="#929497" d="M289.344,38.884c0-3.201,0-3.775-0.046-4.431c-0.051-0.693-0.214-1.017-0.938-1.165
				c-0.181-0.039-0.559-0.058-0.761-0.058c-0.094,0-0.171-0.048-0.171-0.129c0-0.117,0.108-0.161,0.348-0.161
				c0.999,0,2.307,0.057,2.434,0.057c0.206,0,1.481-0.057,2.147-0.057c0.235,0,0.347,0.044,0.347,0.161
				c0,0.082-0.08,0.129-0.18,0.129c-0.148,0-0.289,0.019-0.555,0.058c-0.581,0.102-0.763,0.457-0.803,1.165
				c-0.046,0.656-0.046,1.23-0.046,4.431v1.223h0.086c0.363-0.39,4.364-4.16,5.17-4.959c0.609-0.592,1.19-1.12,1.19-1.469
				c0-0.243-0.107-0.375-0.288-0.43c-0.111-0.046-0.196-0.086-0.196-0.176c0-0.088,0.11-0.132,0.247-0.132
				c0.459,0,1.14,0.057,1.669,0.057c0.114,0,1.574-0.057,2.129-0.057c0.233,0,0.328,0.044,0.328,0.132
				c0,0.11-0.052,0.158-0.231,0.158c-0.318,0-0.78,0.102-1.225,0.282c-0.901,0.373-1.402,0.887-2.388,1.759
				c-0.556,0.494-4.39,3.976-4.863,4.482c0.573,0.595,5.17,4.998,6.071,5.785c1.86,1.589,2.233,1.92,3.311,2.332
				c0.565,0.224,1.204,0.257,1.36,0.257c0.162,0,0.291,0.043,0.291,0.129c0,0.102-0.114,0.169-0.491,0.169h-1.124
				c-0.626,0-1.039,0-1.527-0.056c-1.179-0.087-1.737-0.545-2.666-1.242c-0.998-0.752-5.686-5.438-6.755-6.648h-0.098v2.006
				c0,1.959,0,3.58,0.098,4.442c0.07,0.587,0.195,1.045,0.861,1.124c0.322,0.043,0.669,0.077,0.866,0.077
				c0.137,0,0.18,0.064,0.18,0.129c0,0.102-0.113,0.169-0.351,0.169c-1.084,0-2.359-0.067-2.544-0.067
				c-0.178,0-1.456,0.067-2.122,0.067c-0.248,0-0.362-0.056-0.362-0.169c0-0.064,0.055-0.129,0.178-0.129
				c0.199,0,0.478-0.033,0.666-0.077c0.446-0.079,0.558-0.536,0.644-1.124c0.11-0.862,0.11-2.483,0.11-4.442V38.884z"/>
			<path fill="#929497" d="M307.112,40.292c0-2.698,0-3.199-0.052-3.754c-0.048-0.59-0.14-0.873-0.801-0.958
				c-0.145-0.021-0.481-0.037-0.663-0.037c-0.052,0-0.15-0.085-0.15-0.144c0-0.104,0.099-0.147,0.316-0.147
				c0.877,0,2.141,0.043,2.252,0.043c0.142,0,4.196,0.02,4.641,0c0.378-0.022,0.726-0.076,0.888-0.11
				c0.088-0.01,0.17-0.075,0.27-0.075c0.052,0,0.086,0.075,0.086,0.163c0,0.126-0.119,0.325-0.156,0.823
				c-0.029,0.159-0.074,0.944-0.111,1.145c-0.033,0.082-0.088,0.187-0.18,0.187c-0.111,0-0.159-0.09-0.159-0.224
				c0-0.125-0.025-0.414-0.107-0.618c-0.141-0.289-0.337-0.413-1.39-0.537c-0.334-0.037-2.582-0.064-2.811-0.064
				c-0.082,0-0.107,0.064-0.107,0.188v4.738c0,0.125,0,0.187,0.107,0.187c0.243,0,2.811,0,3.243-0.045
				c0.473-0.047,0.76-0.075,0.957-0.252c0.137-0.116,0.222-0.219,0.292-0.219c0.066,0,0.096,0.041,0.096,0.144
				c0,0.103-0.096,0.384-0.155,0.965c-0.036,0.349-0.077,0.991-0.077,1.121c0,0.139-0.048,0.329-0.171,0.329
				c-0.096,0-0.136-0.059-0.136-0.162c0-0.167,0-0.355-0.101-0.574c-0.051-0.252-0.232-0.457-0.979-0.535
				c-0.532-0.062-2.615-0.083-2.955-0.083c-0.097,0-0.122,0.069-0.122,0.124v1.455c0,0.594-0.025,2.614,0,2.968
				c0.045,1.166,0.384,1.391,2.322,1.391c0.502,0,1.431,0,1.94-0.187c0.503-0.194,0.771-0.503,0.881-1.204
				c0.04-0.202,0.095-0.266,0.202-0.266c0.114,0,0.126,0.144,0.126,0.266c0,0.12-0.151,1.306-0.259,1.682
				c-0.144,0.448-0.336,0.448-1.083,0.448c-1.465,0-2.588-0.036-3.379-0.057c-0.821-0.046-1.332-0.046-1.613-0.046
				c-0.037,0-0.414,0-0.846,0.011c-0.374,0.035-0.806,0.056-1.124,0.056c-0.197,0-0.309-0.056-0.309-0.143
				c0-0.065,0.042-0.155,0.148-0.155c0.189,0,0.422-0.051,0.606-0.077c0.373-0.06,0.43-0.414,0.512-0.923
				c0.109-0.713,0.109-2.091,0.109-3.764V40.292z"/>
			<path fill="#929497" d="M321.756,46.04c0.043,1.445,0.225,1.869,0.753,1.991c0.344,0.083,0.791,0.096,0.969,0.096
				c0.086,0,0.155,0.064,0.155,0.155c0,0.087-0.126,0.143-0.362,0.143c-1.112,0-1.874-0.067-2.045-0.067
				c-0.178,0-0.998,0.067-1.886,0.067c-0.199,0-0.306-0.021-0.306-0.143c0-0.09,0.073-0.155,0.151-0.155
				c0.154,0,0.51-0.013,0.791-0.096c0.499-0.123,0.569-0.593,0.569-2.17v-9.979c0-0.698,0.097-0.875,0.251-0.875
				c0.225,0,0.559,0.348,0.766,0.534c0.3,0.29,3.14,3.07,6.142,5.94c1.919,1.843,3.985,3.915,4.58,4.481l-0.191-8.723
				c-0.025-1.127-0.137-1.514-0.725-1.615c-0.362-0.068-0.807-0.083-0.958-0.083c-0.122,0-0.156-0.106-0.156-0.161
				c0-0.109,0.156-0.13,0.375-0.13c0.896,0,1.812,0.043,2.045,0.043c0.211,0,0.849-0.043,1.657-0.043
				c0.191,0,0.342,0.021,0.342,0.13c0,0.055-0.08,0.161-0.205,0.161c-0.101,0-0.248,0-0.475,0.037c-0.64,0.122-0.69,0.47-0.69,1.514
				l-0.045,10.206c0,1.139-0.015,1.242-0.151,1.242c-0.193,0-0.384-0.135-1.475-1.055c-0.196-0.169-3.015-2.733-5.07-4.715
				c-2.237-2.189-4.433-4.329-5.024-4.938L321.756,46.04z"/>
			<path fill="#929497" d="M340.557,40.292c0-2.698,0-3.199-0.045-3.754c-0.055-0.59-0.166-0.873-0.791-0.958
				c-0.159-0.021-0.499-0.037-0.669-0.037c-0.071,0-0.155-0.085-0.155-0.144c0-0.104,0.084-0.147,0.3-0.147
				c0.883,0,2.147,0.043,2.258,0.043c0.227,0,1.46-0.043,2.61-0.043c1.949,0,5.503-0.163,7.795,1.989
				c0.976,0.907,1.908,2.352,1.908,4.422c0,2.189-1.017,3.877-2.102,4.895c-0.846,0.797-2.58,2.007-5.885,2.007
				c-0.852,0-1.894-0.059-2.725-0.103c-0.848-0.057-1.517-0.103-1.603-0.103c-0.037,0-0.391,0.011-0.791,0.011
				c-0.402,0.035-0.861,0.056-1.165,0.056c-0.21,0-0.321-0.056-0.321-0.143c0-0.065,0.045-0.155,0.153-0.155
				c0.18,0,0.431-0.033,0.604-0.077c0.381-0.079,0.411-0.414,0.507-0.923c0.115-0.713,0.115-2.091,0.115-3.764V40.292z
				 M342.319,42.18c0,1.84,0,3.461,0.026,3.783c0.011,0.425,0.067,1.07,0.204,1.252c0.25,0.321,0.942,0.694,3.242,0.694
				c1.794,0,3.375-0.555,4.541-1.577c1.017-0.883,1.526-2.545,1.526-4.141c0-2.202-1.039-3.619-1.831-4.359
				c-1.833-1.719-3.974-1.949-6.292-1.949c-0.377,0-1.002,0.064-1.187,0.129c-0.162,0.064-0.23,0.141-0.23,0.347V42.18z"/>
			<path fill="#929497" d="M365.587,35.008c4.375,0,7.685,2.477,7.685,6.527c0,3.894-3.114,7.114-7.806,7.114
				c-5.324,0-7.591-3.71-7.591-6.843C357.875,39.004,360.207,35.008,365.587,35.008z M366.021,47.933
				c1.745,0,5.261-0.862,5.261-5.895c0-4.186-2.735-6.374-5.815-6.374c-3.243,0-5.587,1.88-5.587,5.663
				C359.879,45.396,362.501,47.933,366.021,47.933z"/>
			<path fill="#929497" d="M379.815,46.04c0.026,1.445,0.218,1.869,0.735,1.991c0.359,0.083,0.806,0.096,0.984,0.096
				c0.089,0,0.148,0.064,0.148,0.155c0,0.087-0.134,0.143-0.355,0.143c-1.1,0-1.871-0.067-2.056-0.067s-0.991,0.067-1.876,0.067
				c-0.194,0-0.306-0.021-0.306-0.143c0-0.09,0.055-0.155,0.151-0.155c0.154,0,0.495-0.013,0.791-0.096
				c0.491-0.123,0.559-0.593,0.559-2.17v-9.979c0-0.698,0.111-0.875,0.259-0.875c0.226,0,0.544,0.348,0.754,0.534
				c0.322,0.29,3.144,3.07,6.142,5.94c1.916,1.843,4.005,3.915,4.601,4.481l-0.197-8.723c-0.025-1.127-0.137-1.514-0.736-1.615
				c-0.347-0.068-0.794-0.083-0.945-0.083c-0.125,0-0.151-0.106-0.151-0.161c0-0.109,0.151-0.13,0.373-0.13
				c0.877,0,1.808,0.043,2.027,0.043c0.225,0,0.863-0.043,1.651-0.043c0.211,0,0.37,0.021,0.37,0.13
				c0,0.055-0.104,0.161-0.226,0.161c-0.085,0-0.252,0-0.47,0.037c-0.643,0.122-0.685,0.47-0.685,1.514l-0.044,10.206
				c0,1.139-0.025,1.242-0.155,1.242c-0.188,0-0.399-0.135-1.465-1.055c-0.214-0.169-3.018-2.733-5.072-4.715
				c-2.255-2.189-4.433-4.329-5.043-4.938L379.815,46.04z"/>
			<path fill="#929497" d="M407.89,43.981c0-1.423-0.051-1.621-0.851-1.764c-0.151-0.026-0.479-0.037-0.664-0.037
				c-0.067,0-0.153-0.085-0.153-0.142c0-0.13,0.086-0.149,0.321-0.149c0.874,0,2.183,0.045,2.289,0.045
				c0.085,0,1.31-0.045,1.901-0.045c0.233,0,0.311,0.02,0.311,0.149c0,0.056-0.077,0.142-0.151,0.142c-0.125,0-0.267,0-0.484,0.037
				c-0.532,0.082-0.699,0.341-0.743,0.967c-0.008,0.545-0.008,1.057-0.008,1.801v1.942c0,0.795-0.029,0.814-0.267,0.943
				c-1.238,0.59-3.016,0.778-4.141,0.778c-1.475,0-4.236-0.161-6.404-1.862c-1.194-0.925-2.321-2.792-2.321-4.964
				c0-2.786,1.534-4.745,3.254-5.71c1.745-0.982,3.679-1.104,5.168-1.104c1.232,0,2.61,0.21,2.97,0.286
				c0.406,0.087,1.102,0.188,1.582,0.188c0.183,0,0.241,0.075,0.241,0.155c0,0.245-0.111,0.721-0.111,2.458
				c0,0.283-0.084,0.368-0.221,0.368c-0.111,0-0.126-0.098-0.126-0.264c-0.017-0.22-0.142-0.736-0.449-1.146
				c-0.483-0.658-1.971-1.353-4.484-1.353c-1.168,0-2.581,0.085-4.071,1.128c-1.124,0.804-1.915,2.356-1.915,4.383
				c0,2.461,1.372,4.217,2.056,4.817c1.539,1.325,3.177,1.816,4.973,1.816c0.682,0,1.583-0.06,2.098-0.331
				c0.251-0.114,0.402-0.199,0.402-0.534V43.981z"/>
		</g>
		<g>
			<path fill="#929497" d="M477.465,46.492c-2.141-1.777-2.67-4.115-2.67-6.06c0-1.374,0.513-3.765,2.474-5.594
				c1.335-1.231,3.334-2.189,6.739-2.189c0.889,0,2.123,0.063,3.211,0.243c0.846,0.149,1.541,0.271,2.247,0.31
				c0.232,0.028,0.281,0.102,0.281,0.233c0,0.159-0.06,0.41-0.1,1.144c-0.055,0.671-0.055,1.805-0.07,2.101
				c-0.026,0.309-0.066,0.437-0.188,0.437c-0.155,0-0.186-0.141-0.186-0.437c0-0.798-0.361-1.629-0.928-2.088
				c-0.769-0.604-2.474-1.156-4.422-1.156c-2.939,0-4.304,0.792-5.069,1.493c-1.623,1.43-1.999,3.259-1.999,5.343
				c0,3.909,3.248,7.496,7.975,7.496c1.648,0,2.957-0.18,3.849-1.033c0.455-0.44,0.746-1.338,0.803-1.712
				c0.055-0.224,0.1-0.307,0.236-0.307c0.1,0,0.156,0.143,0.156,0.307c0,0.141-0.281,1.925-0.489,2.615
				c-0.137,0.394-0.181,0.439-0.584,0.6c-0.873,0.327-2.554,0.47-3.971,0.47C481.45,48.707,479.214,47.946,477.465,46.492z"/>
			<path fill="#929497" d="M501.498,35.008c4.374,0,7.702,2.477,7.702,6.527c0,3.894-3.132,7.114-7.812,7.114
				c-5.317,0-7.587-3.71-7.587-6.843C493.801,39.004,496.141,35.008,501.498,35.008z M501.94,47.933c1.75,0,5.255-0.862,5.255-5.895
				c0-4.186-2.729-6.374-5.808-6.374c-3.236,0-5.588,1.88-5.588,5.663C495.8,45.396,498.433,47.933,501.94,47.933z"/>
			<path fill="#929497" d="M515.736,46.04c0.049,1.445,0.222,1.869,0.74,1.991c0.361,0.083,0.803,0.096,0.972,0.096
				c0.097,0,0.162,0.064,0.162,0.155c0,0.087-0.137,0.143-0.357,0.143c-1.095,0-1.875-0.067-2.057-0.067
				c-0.166,0-0.986,0.067-1.863,0.067c-0.207,0-0.321-0.021-0.321-0.143c0-0.09,0.074-0.155,0.159-0.155
				c0.162,0,0.496-0.013,0.786-0.096c0.489-0.123,0.559-0.593,0.559-2.17v-9.979c0-0.698,0.107-0.875,0.264-0.875
				c0.223,0,0.558,0.348,0.755,0.534c0.316,0.29,3.135,3.07,6.136,5.94c1.921,1.843,4.005,3.915,4.601,4.481l-0.208-8.723
				c-0.015-1.127-0.129-1.514-0.724-1.615c-0.348-0.068-0.788-0.083-0.947-0.083c-0.137,0-0.147-0.106-0.147-0.161
				c0-0.109,0.147-0.13,0.369-0.13c0.877,0,1.808,0.043,2.03,0.043c0.222,0,0.859-0.043,1.668-0.043c0.196,0,0.351,0.021,0.351,0.13
				c0,0.055-0.104,0.161-0.229,0.161c-0.096,0-0.229,0-0.455,0.037c-0.654,0.122-0.695,0.47-0.695,1.514l-0.045,10.206
				c0,1.139-0.025,1.242-0.148,1.242c-0.191,0-0.401-0.135-1.475-1.055c-0.205-0.169-3.012-2.733-5.073-4.715
				c-2.251-2.189-4.433-4.329-5.039-4.938L515.736,46.04z"/>
			<path fill="#929497" d="M533.34,48.171c-0.273-0.12-0.288-0.18-0.288-0.656c0-0.857,0.077-1.552,0.107-1.835
				c0-0.187,0.044-0.283,0.154-0.283c0.111,0,0.182,0.052,0.182,0.194c0,0.146,0,0.386,0.055,0.644
				c0.322,1.263,1.771,1.711,3.069,1.711c1.93,0,2.929-0.999,2.929-2.305c0-1.249-0.731-1.854-2.459-3.032l-0.869-0.618
				c-2.115-1.447-2.795-2.521-2.795-3.729c0-2.047,1.75-3.274,4.305-3.274c0.765,0,1.56,0.1,2.015,0.196
				c0.373,0.087,0.529,0.087,0.684,0.087c0.151,0,0.193,0.022,0.193,0.126c0,0.084-0.082,0.65-0.082,1.842
				c0,0.265-0.025,0.393-0.156,0.393c-0.137,0-0.151-0.089-0.181-0.23c-0.011-0.199-0.162-0.672-0.281-0.865
				c-0.137-0.191-0.771-0.854-2.517-0.854c-1.413,0-2.589,0.663-2.589,1.887c0,1.105,0.596,1.739,2.515,2.947l0.553,0.347
				c2.363,1.496,3.18,2.704,3.18,4.2c0,1.017-0.416,2.129-1.808,2.967c-0.817,0.496-2.021,0.617-3.095,0.617
				C535.258,48.648,534.136,48.527,533.34,48.171z"/>
			<path fill="#929497" d="M552.441,43.363c0,1.673,0,3.051,0.086,3.764c0.064,0.51,0.165,0.845,0.76,0.923
				c0.267,0.043,0.7,0.077,0.877,0.077c0.14,0,0.151,0.09,0.151,0.155c0,0.076-0.077,0.143-0.303,0.143
				c-1.055,0-2.294-0.067-2.405-0.067c-0.099,0-1.443,0.067-2.014,0.067c-0.221,0-0.303-0.056-0.303-0.143
				c0-0.065,0.039-0.13,0.15-0.13c0.179,0,0.393-0.038,0.574-0.076c0.399-0.085,0.511-0.439,0.569-0.949
				c0.092-0.713,0.092-2.091,0.092-3.764v-7.315l-2.807,0.046c-1.22,0.018-1.678,0.142-1.97,0.547
				c-0.212,0.315-0.237,0.436-0.303,0.562c-0.045,0.134-0.116,0.158-0.204,0.158c-0.049,0-0.137-0.039-0.137-0.144
				c0-0.179,0.377-1.735,0.432-1.883c0.015-0.103,0.123-0.327,0.196-0.327c0.122,0,0.33,0.14,0.863,0.21
				c0.546,0.054,1.304,0.076,1.526,0.076h7.339c0.635,0,1.064-0.043,1.387-0.076c0.296-0.044,0.473-0.088,0.546-0.088
				c0.095,0,0.095,0.102,0.095,0.205c0,0.527-0.058,1.783-0.058,1.987c0,0.142-0.099,0.222-0.18,0.222
				c-0.1,0-0.137-0.059-0.167-0.304l-0.029-0.186c-0.051-0.529-0.47-0.923-2.334-0.959l-2.432-0.046V43.363z"/>
			<path fill="#929497" d="M563.334,40.292c0-2.698,0-3.199-0.041-3.754c-0.056-0.59-0.152-0.873-0.791-0.958
				c-0.164-0.021-0.5-0.037-0.669-0.037c-0.067,0-0.152-0.085-0.152-0.144c0-0.104,0.085-0.147,0.304-0.147
				c0.891,0,2.195,0.043,2.292,0.043c0.214,0,1.842-0.043,2.434-0.043c1.233,0,2.613,0.105,3.642,0.761
				c0.473,0.334,1.33,1.169,1.33,2.367c0,1.301-0.564,2.549-2.384,3.981c1.598,1.841,2.938,3.421,4.066,4.504
				c1.033,0.981,1.683,1.149,2.167,1.212c0.377,0.051,0.568,0.051,0.677,0.051c0.114,0,0.185,0.09,0.185,0.155
				c0,0.087-0.111,0.143-0.469,0.143h-1.214c-1.112,0-1.583-0.106-2.077-0.349c-0.841-0.415-1.542-1.254-2.644-2.562
				c-0.818-0.94-1.683-2.074-2.101-2.537c-0.093-0.093-0.137-0.103-0.259-0.103l-2.491-0.047c-0.079,0-0.122,0.047-0.122,0.149
				v0.404c0,1.683,0,3.033,0.08,3.746c0.074,0.51,0.182,0.845,0.78,0.923c0.264,0.043,0.681,0.077,0.862,0.077
				c0.14,0,0.147,0.09,0.147,0.155c0,0.076-0.082,0.143-0.315,0.143c-1.06,0-2.295-0.067-2.377-0.067
				c-0.015,0-1.319,0.067-1.914,0.067c-0.192,0-0.308-0.056-0.308-0.143c0-0.065,0.029-0.155,0.138-0.155
				c0.182,0,0.433-0.033,0.614-0.077c0.361-0.079,0.416-0.414,0.498-0.923c0.111-0.713,0.111-2.091,0.111-3.764V40.292z
				 M565.017,41.766c0,0.102,0.043,0.167,0.122,0.225c0.299,0.14,1.282,0.264,2.155,0.264c0.458,0,0.99-0.017,1.456-0.309
				c0.654-0.412,1.169-1.325,1.169-2.66c0-2.168-1.275-3.425-3.361-3.425c-0.57,0-1.191,0.073-1.387,0.108
				c-0.085,0.042-0.154,0.106-0.154,0.203V41.766z"/>
			<path fill="#929497" d="M578.841,40.292c0-2.698,0-3.199-0.042-3.754c-0.043-0.553-0.154-0.873-0.809-0.958
				c-0.137-0.021-0.474-0.037-0.655-0.037c-0.07,0-0.147-0.085-0.147-0.144c0-0.104,0.077-0.147,0.304-0.147
				c0.886,0,2.059,0.043,2.24,0.043c0.178,0,1.382-0.043,1.952-0.043c0.227,0,0.341,0.043,0.341,0.147
				c0,0.058-0.089,0.144-0.182,0.144c-0.126,0-0.237,0-0.474,0.037c-0.518,0.085-0.629,0.391-0.669,0.958
				c-0.055,0.555-0.055,1.057-0.055,3.754v2.442c0,2.515,0.599,3.561,1.444,4.248c0.947,0.804,1.793,0.952,2.886,0.952
				c1.2,0,2.348-0.495,3.018-1.229c0.903-1.011,1.097-2.44,1.097-4.219v-2.194c0-2.698-0.025-3.199-0.035-3.754
				c-0.035-0.553-0.142-0.873-0.782-0.958c-0.15-0.021-0.488-0.037-0.669-0.037c-0.087,0-0.15-0.085-0.15-0.144
				c0-0.104,0.096-0.147,0.314-0.147c0.862,0,1.988,0.043,2.104,0.043c0.123,0,1.056-0.043,1.625-0.043
				c0.219,0,0.315,0.043,0.315,0.147c0,0.058-0.07,0.144-0.157,0.144c-0.13,0-0.226,0-0.496,0.037
				c-0.508,0.104-0.617,0.391-0.679,0.958c-0.042,0.555-0.01,1.057-0.01,3.754v1.859c0,1.887-0.271,4-1.827,5.223
				c-1.396,1.131-2.914,1.275-4.053,1.275c-0.636,0-2.68-0.046-4.053-1.231c-0.946-0.822-1.696-2.021-1.696-4.562V40.292z"/>
			<path fill="#929497" d="M597.811,46.786c-1.897-1.518-2.354-3.503-2.354-5.163c0-1.165,0.457-3.193,2.178-4.749
				c1.165-1.043,2.944-1.867,5.929-1.867c0.772,0,1.866,0.064,2.824,0.21c0.74,0.117,1.345,0.238,1.985,0.265
				c0.216,0,0.254,0.075,0.254,0.182c0,0.14-0.038,0.348-0.103,0.978c-0.007,0.576-0.007,1.546-0.032,1.789
				c-0.032,0.271-0.119,0.36-0.226,0.36c-0.128,0-0.154-0.116-0.154-0.36c0-0.68-0.302-1.376-0.823-1.75
				c-0.676-0.528-2.091-0.955-3.815-0.955c-2.503,0-3.699,0.62-4.378,1.199c-1.432,1.237-1.737,2.792-1.737,4.557
				c0,3.336,2.847,6.304,7.006,6.304c1.458,0,2.426-0.103,3.195-0.815c0.431-0.395,0.691-1.134,0.752-1.456
				c0.052-0.188,0.062-0.246,0.206-0.246c0.081,0,0.167,0.128,0.167,0.246c0,0.127-0.27,1.631-0.46,2.227
				c-0.112,0.335-0.151,0.386-0.492,0.515c-0.788,0.283-2.245,0.392-3.496,0.392C601.305,48.648,599.343,48.013,597.811,46.786z"/>
			<path fill="#929497" d="M619.098,43.363c0,1.673,0,3.051,0.07,3.764c0.07,0.51,0.168,0.845,0.766,0.923
				c0.26,0.043,0.711,0.077,0.872,0.077c0.145,0,0.154,0.09,0.154,0.155c0,0.076-0.084,0.143-0.302,0.143
				c-1.056,0-2.298-0.067-2.407-0.067c-0.1,0-1.432,0.067-2.014,0.067c-0.205,0-0.303-0.056-0.303-0.143
				c0-0.065,0.039-0.13,0.148-0.13c0.183,0,0.405-0.038,0.572-0.076c0.406-0.085,0.515-0.439,0.586-0.949
				c0.077-0.713,0.077-2.091,0.077-3.764v-7.315l-2.802,0.046c-1.213,0.018-1.676,0.142-1.973,0.547
				c-0.209,0.315-0.238,0.436-0.312,0.562c-0.035,0.134-0.097,0.158-0.189,0.158c-0.046,0-0.123-0.039-0.123-0.144
				c0-0.179,0.36-1.735,0.415-1.883c0.017-0.103,0.126-0.327,0.193-0.327c0.125,0,0.331,0.14,0.865,0.21
				c0.54,0.054,1.307,0.076,1.524,0.076h7.322c0.649,0,1.081-0.043,1.406-0.076c0.286-0.044,0.469-0.088,0.556-0.088
				c0.078,0,0.078,0.102,0.078,0.205c0,0.527-0.065,1.783-0.065,1.987c0,0.142-0.09,0.222-0.17,0.222
				c-0.097,0-0.139-0.059-0.171-0.304l-0.01-0.186c-0.067-0.529-0.488-0.923-2.349-0.959l-2.418-0.046V43.363z"/>
			<path fill="#929497" d="M631.756,43.363c0,1.673,0,3.051,0.084,3.764c0.07,0.51,0.122,0.845,0.694,0.923
				c0.29,0.043,0.711,0.077,0.889,0.077c0.115,0,0.15,0.09,0.15,0.155c0,0.076-0.08,0.143-0.303,0.143
				c-1.083,0-2.345-0.067-2.435-0.067c-0.109,0-1.318,0.067-1.914,0.067c-0.19,0-0.303-0.056-0.303-0.143
				c0-0.065,0.035-0.155,0.148-0.155c0.17,0,0.422-0.033,0.602-0.077c0.354-0.079,0.432-0.414,0.502-0.923
				c0.093-0.713,0.122-2.091,0.122-3.764v-3.072c0-2.698,0-3.199-0.055-3.754c-0.042-0.59-0.216-0.854-0.624-0.941
				c-0.226-0.039-0.46-0.055-0.583-0.055c-0.103,0-0.167-0.085-0.167-0.144c0-0.104,0.09-0.147,0.315-0.147
				c0.638,0,1.847,0.043,1.956,0.043c0.09,0,1.352-0.043,1.95-0.043c0.218,0,0.309,0.043,0.309,0.147
				c0,0.058-0.091,0.144-0.155,0.144c-0.128,0-0.264,0-0.488,0.037c-0.528,0.104-0.637,0.355-0.682,0.958
				c-0.014,0.555-0.014,1.057-0.014,3.754V43.363z"/>
			<path fill="#929497" d="M645.428,35.008c4.378,0,7.683,2.477,7.683,6.527c0,3.894-3.114,7.114-7.792,7.114
				c-5.34,0-7.614-3.71-7.614-6.843C637.704,39.004,640.053,35.008,645.428,35.008z M645.872,47.933
				c1.733,0,5.253-0.862,5.253-5.895c0-4.186-2.751-6.374-5.807-6.374c-3.252,0-5.598,1.88-5.598,5.663
				C639.721,45.396,642.359,47.933,645.872,47.933z"/>
			<path fill="#929497" d="M659.646,46.04c0.045,1.445,0.212,1.869,0.756,1.991c0.348,0.083,0.782,0.096,0.972,0.096
				c0.087,0,0.157,0.064,0.157,0.155c0,0.087-0.141,0.143-0.363,0.143c-1.097,0-1.876-0.067-2.042-0.067
				c-0.194,0-1.004,0.067-1.889,0.067c-0.196,0-0.306-0.021-0.306-0.143c0-0.09,0.063-0.155,0.154-0.155
				c0.151,0,0.515-0.013,0.804-0.096c0.47-0.123,0.541-0.593,0.541-2.17v-9.979c0-0.698,0.112-0.875,0.264-0.875
				c0.222,0,0.553,0.348,0.747,0.534c0.324,0.29,3.142,3.07,6.156,5.94c1.904,1.843,3.986,3.915,4.587,4.481l-0.195-8.723
				c-0.032-1.127-0.139-1.514-0.721-1.615c-0.363-0.068-0.808-0.083-0.955-0.083c-0.148,0-0.155-0.106-0.155-0.161
				c0-0.109,0.155-0.13,0.373-0.13c0.875,0,1.802,0.043,2.027,0.043c0.219,0,0.861-0.043,1.666-0.043
				c0.192,0,0.348,0.021,0.348,0.13c0,0.055-0.097,0.161-0.226,0.161c-0.077,0-0.231,0-0.47,0.037
				c-0.623,0.122-0.679,0.47-0.679,1.514l-0.042,10.206c0,1.139-0.013,1.242-0.147,1.242c-0.203,0-0.398-0.135-1.493-1.055
				c-0.195-0.169-2.998-2.733-5.057-4.715c-2.249-2.189-4.43-4.329-5.031-4.938L659.646,46.04z"/>
		</g>
	</g>
	<polygon fill="#39BEBE" points="462.476,68.767 435.731,27.957 440.812,87.662 	"/>
</g>
</svg>
